<svg width="48" height="48" viewBox="0 0 48 48" fill="none" xmlns="http://www.w3.org/2000/svg">
<path fill-rule="evenodd" clip-rule="evenodd" d="M15.832 4C8.756 4 4 8.552 4 15.33V32.668C4 39.446 8.756 44 15.832 44H32.168C39.244 44 44 39.446 44 32.668V15.33C44 8.552 39.244 4 32.168 4H15.832ZM15.832 7H32.168C37.534 7 41 10.27 41 15.33V32.668C41 37.728 37.534 41 32.168 41H15.832C10.466 41 7 37.728 7 32.668V15.33C7 10.27 10.466 7 15.832 7Z" fill="#272727"/>
<path fill-rule="evenodd" clip-rule="evenodd" d="M24.5433 36C31.1707 36 36.5433 30.6274 36.5433 24C36.5433 17.3726 31.1707 12 24.5433 12C17.9158 12 12.5433 17.3726 12.5433 24C12.5433 30.6274 17.9158 36 24.5433 36ZM16.5433 22.5C15.7148 22.5 15.0433 23.1716 15.0433 24C15.0433 24.8284 15.7148 25.5 16.5433 25.5H32.5433C33.3717 25.5 34.0433 24.8284 34.0433 24C34.0433 23.1716 33.3717 22.5 32.5433 22.5H16.5433Z" fill="#272727"/>
</svg>
