<svg width="153" height="153" viewBox="0 0 153 153" fill="none" xmlns="http://www.w3.org/2000/svg">
<rect width="153" height="153" rx="33" fill="#58AECC"/>
<path d="M79.2824 29.0604L111.64 39.7312C115.262 40.92 117.711 44.1903 117.731 47.8553L117.937 79.6751C118 89.3216 114.423 98.6768 107.871 106.007C104.857 109.371 100.995 112.261 96.0624 114.845L78.669 123.984C78.1242 124.266 77.5254 124.412 76.9218 124.417C76.3181 124.421 75.7144 124.28 75.1746 124.003L57.6192 115.075C52.6328 112.533 48.736 109.686 45.6931 106.369C39.0332 99.1138 35.3327 89.8009 35.2689 80.1403L35.0626 48.344C35.0431 44.6743 37.448 41.3805 41.0503 40.1447L73.2851 29.0933C75.1991 28.4261 77.334 28.412 79.2824 29.0604ZM94.7559 63.1727C93.3081 61.8054 90.9769 61.8148 89.5487 63.2009L73.127 79.1108L66.4033 72.7581C64.9555 71.3908 62.6291 71.4049 61.196 72.791C59.7679 74.1772 59.7826 76.4044 61.2304 77.7717L70.57 86.6053C71.2964 87.2913 72.2387 87.6296 73.181 87.6204C74.1233 87.6155 75.0607 87.2678 75.7773 86.5724L94.7854 68.1534C96.2135 66.7673 96.1988 64.5401 94.7559 63.1727Z" fill="#272727"/>
</svg>
